<svg width="17" height="17" viewBox="0 0 17 17" fill="none" xmlns="http://www.w3.org/2000/svg">
<path d="M8.01562 1.92188C9.1875 1.92188 10.125 2.85938 10.125 4.03125C10.125 5.15625 9.1875 6.09375 8.01562 6.09375C6.84375 6.09375 5.90625 5.15625 5.90625 4.03125C5.90625 2.85938 6.84375 1.92188 8.01562 1.92188ZM8.01562 10.9219C10.9688 10.9219 14.1094 12.375 14.1094 13.0312V14.1094H1.92188V13.0312C1.92188 12.375 5.0625 10.9219 8.01562 10.9219ZM8.01562 0C5.8125 0 4.03125 1.82812 4.03125 4.03125C4.03125 6.23438 5.8125 8.01562 8.01562 8.01562C10.2188 8.01562 12 6.23438 12 4.03125C12 1.82812 10.2188 0 8.01562 0ZM8.01562 9C5.34375 9 0 10.3594 0 13.0312V16.0312H16.0312V13.0312C16.0312 10.3594 10.6875 9 8.01562 9Z" fill="#94A3B8"/>
</svg>
