<svg width="20" height="19" viewBox="0 0 20 19" fill="none" xmlns="http://www.w3.org/2000/svg">
<path d="M14.4844 0C12.75 0 11.0625 0.796875 9.98438 2.10938C8.90625 0.796875 7.21875 0 5.48438 0C2.39062 0 0 2.4375 0 5.48438C0 9.28125 3.375 12.375 8.53125 17.0625L9.98438 18.3281L11.4375 17.0156C16.5938 12.375 19.9688 9.28125 19.9688 5.48438C19.9688 2.4375 17.5781 0 14.4844 0ZM10.0781 15.5625L9.98438 15.6562L9.89062 15.5625C5.10938 11.25 1.96875 8.39062 1.96875 5.48438C1.96875 3.51562 3.46875 2.01562 5.48438 2.01562C7.03125 2.01562 8.53125 3 9.04688 4.35938H10.9219C11.4375 3 12.9375 2.01562 14.4844 2.01562C16.5 2.01562 18 3.51562 18 5.48438C18 8.39062 14.8594 11.25 10.0781 15.5625Z" fill="#94A3B8"/>
</svg>
