<svg id="Layer_2" height="512" viewBox="0 0 64 64" width="512" xmlns="http://www.w3.org/2000/svg"><path d="m5 50h-4c-.553 0-1-.448-1-1v-32c0-1.654 1.346-3 3-3s3 1.346 3 3v32c0 .552-.447 1-1 1zm-3-2h2v-31c0-.551-.448-1-1-1s-1 .449-1 1z"/><path d="m63 50h-4c-.553 0-1-.448-1-1v-22c0-1.654 1.346-3 3-3s3 1.346 3 3v22c0 .552-.447 1-1 1zm-3-2h2v-21c0-.551-.448-1-1-1s-1 .449-1 1z"/><path d="m59 45h-54c-.553 0-1-.448-1-1v-10c0-.552.447-1 1-1h14c.553 0 1 .448 1 1s-.447 1-1 1h-13v8h52v-9c0-.552.447-1 1-1s1 .448 1 1v10c0 .552-.447 1-1 1z"/><path d="m59 41h-40c-.553 0-1-.448-1-1v-8c0-2.757 2.243-5 5-5h32c2.757 0 5 2.243 5 5v8c0 .552-.447 1-1 1zm-39-2h38v-7c0-1.654-1.346-3-3-3h-32c-1.654 0-3 1.346-3 3z"/><path d="m19 35h-14c-.553 0-1-.448-1-1v-4c0-2.757 2.243-5 5-5h6c2.757 0 5 2.243 5 5v4c0 .552-.447 1-1 1zm-13-2h12v-3c0-1.654-1.346-3-3-3h-6c-1.654 0-3 1.346-3 3z"/></svg>