<svg id="Outline" viewBox="0 0 48 48" xmlns="http://www.w3.org/2000/svg"><path d="m21.61 23.78a63.2284 63.2284 0 0 0 -11.17 4.12.9761.9761 0 0 1 -.44.1 1.0164 1.0164 0 0 1 -.9-.56 1 1 0 0 1 .46-1.34 65.9072 65.9072 0 0 1 12.34-4.45 3.2048 3.2048 0 0 0 -.29 2.13z"/><path d="m32.93 25.63s.16.29.43.71c-5.62.48-13.44 1.61-19.95 4.57a.9782.9782 0 0 1 -.41.09 1.0026 1.0026 0 0 1 -.91-.59.9908.9908 0 0 1 .5-1.32 51.757 51.757 0 0 1 11.43-3.49c.45-.09.9-.18 1.35-.25 1.14-.2 2.26-.37 3.35-.52 1.13.79 3.32 1.28 4.21.8z"/><path d="m41.74 17.06a10.5489 10.5489 0 0 0 -8.17-8.89c-3.62-.71-7.11.79-9.57 4.03-2.46-3.24-5.95-4.74-9.57-4.03a10.5489 10.5489 0 0 0 -8.17 8.89c-.57 3.72-.04 13.37 17.26 22.82a1.02 1.02 0 0 0 .96 0c6.67-3.64 10.85-7.32 13.42-10.67a4.2071 4.2071 0 0 1 -.84.24 1.9848 1.9848 0 0 1 -1.49-.51 41.3946 41.3946 0 0 1 -11.57 8.92c-15.72-8.75-16.27-17.23-15.76-20.49a8.5519 8.5519 0 0 1 6.58-7.24 7.3421 7.3421 0 0 1 1.39-.13c2.71 0 5.18 1.58 6.93 4.5a1.0468 1.0468 0 0 0 1.72 0c2.04-3.41 5.07-5 8.32-4.37a8.5519 8.5519 0 0 1 6.58 7.24 9.7385 9.7385 0 0 1 .09 2.04 2.5084 2.5084 0 0 1 1.63.85 2.1672 2.1672 0 0 1 .27.37 12.31 12.31 0 0 0 -.01-3.57z"/><path d="m23.8262 26.6162a2.75 2.75 0 0 1 -1.93-.6523c-2.1426-1.9834-1.2744-3.9151-.7012-5.1934a3.0838 3.0838 0 0 0 .428-1.4605c-.333-1.8262-.789-4.3262 1.8545-5.1573 3.5606-1.11 6.58 4.1553 6.9121 4.7608a1 1 0 0 1 -1.7529.9639c-.8056-1.461-2.9717-4.3145-4.56-3.8165-.7656.24-.9033.6055-.4873 2.89a4.4622 4.4622 0 0 1 -.5693 2.64c-.5918 1.3164-.81 1.9395.2354 2.9073.4316.4 2.5556-.1592 4.37-1.1524a1 1 0 0 1 .9619 1.7539 11.45 11.45 0 0 1 -4.7612 1.5165z"/><path d="m36.8457 30.4668c-2.2139 0-4.2051-3.2969-4.7881-4.3574a1 1 0 0 1 1.7529-.9639c.9971 1.8106 2.5 3.418 3.0694 3.3184 1.4-.2559 1.5517-.8985 1.76-2.3272a4.4724 4.4724 0 0 1 .9346-2.5332c1.5781-1.7031 1.6582-2.0849 1.1406-2.7-1.0654-1.2656-4.4316-.0254-5.8945.7735a1 1 0 0 1 -.9619-1.7539c.6055-.3321 5.9824-3.1661 8.3877-.3067 1.7842 2.12.0566 3.9854-1.2041 5.3467a3.0852 3.0852 0 0 0 -.4238 1.4619c-.2012 1.3867-.5059 3.4824-3.3789 4.0059a2.1638 2.1638 0 0 1 -.3939.0359z"/><path d="m31.916 26.82c-1.7617 0-4.0224-.9092-4.6865-2.1172a4.9588 4.9588 0 0 1 -.0205-3.3613 4.9525 4.9525 0 0 1 1.8232-2.8242 4.94 4.94 0 0 1 3.36-.0205 4.9424 4.9424 0 0 1 2.8242 1.8222 4.9524 4.9524 0 0 1 .0215 3.36 4.956 4.956 0 0 1 -1.8223 2.8252 3.16 3.16 0 0 1 -1.4996.3158zm-1.4238-6.62a1.2621 1.2621 0 0 0 -.4981.07 3.2565 3.2565 0 0 0 -.8642 1.6309 3.2475 3.2475 0 0 0 -.1465 1.8388 4.4842 4.4842 0 0 0 3.47 1.0108 3.2562 3.2562 0 0 0 .8643-1.6309 3.2582 3.2582 0 0 0 .1465-1.8389 3.2507 3.2507 0 0 0 -1.63-.8642 4.9007 4.9007 0 0 0 -1.342-.2165z"/></svg>