<svg height="24" viewBox="0 0 24 24" width="24" xmlns="http://www.w3.org/2000/svg" xmlns:sketch="http://www.bohemiancoding.com/sketch/ns"><g id="miu" fill="none" fill-rule="evenodd"><g id="Artboard-1" transform="translate(-647 -155)"><g id="slice" transform="translate(215 119)"/><path id="circle-gift-present-outline-stroke" d="m648 166.5c0-6.351275 5.148725-11.5 11.5-11.5s11.5 5.148725 11.5 11.5-5.148725 11.5-11.5 11.5-11.5-5.148725-11.5-11.5zm22 0c0-5.79899-4.70101-10.5-10.5-10.5s-10.5 4.70101-10.5 10.5 4.70101 10.5 10.5 10.5 10.5-4.70101 10.5-10.5zm-11-5.5.5 1 .5-1v-4h-1zm0 9v6h1v-6l-.5-1zm1-2.5s1.543773 1.494745 1.73938 2.472778c.304393 1.521967 2.670166 2.970093 2.670166 2.970093l-.467407-1.183594h1.310791s-2.145752-.96582-2.449341-2.238769-1.803589-2.520508-1.803589-2.520508zm-.807957 0s-1.543774 1.494745-1.73938 2.472778c-.304394 1.521967-2.670166 2.970093-2.670166 2.970093l.467407-1.183594h-1.310791s2.145752-.96582 2.449341-2.238769 1.803589-2.520508 1.803589-2.520508zm3.807957-.5h6v-1h-4.5zm-13 0h6l-1.5-1h-4.5zm9.5 0c.276142 0 .5-.223858.5-.5s-.223858-.5-.5-.5-.5.223858-.5.5.223858.5.5.5zm5.230175-5.734864c-2.901278-2.901279-4.944051 2.834124-4.944051 2.834124l.353554 1.767767s2.114102-5.664073 3.889087-3.889087c1.774985 1.774985-3.889087 3.889087-3.889087 3.889087l1.767767.353553s5.724008-2.054165 2.82273-4.955444zm-10.465039.004689c-2.901279 2.901278 2.834124 4.944051 2.834124 4.944051l1.767767-.353554s-5.664073-2.114102-3.889087-3.889087c1.774985-1.774985 3.889087 3.889087 3.889087 3.889087l.353553-1.767767s-2.054165-5.724008-4.955444-2.82273z" fill="#000"/></g></g></svg>