<svg id="Image" enable-background="new 0 0 64 64" height="64" viewBox="0 0 64 64" width="64" xmlns="http://www.w3.org/2000/svg"><g fill="none" stroke="#424242" stroke-linejoin="round" stroke-miterlimit="10" stroke-width="2"><path d="m49.726 13.406c-.938-.899-2.21-1.406-3.538-1.406h-28.376c-1.328 0-2.601.507-3.538 1.406l-8.907 8.545c-.356.346-.465.861-.271 1.309s.649.74 1.155.74h51.497c.506 0 .964-.293 1.158-.74.063-.149.094-.305.094-.46 0-.312-.127-.618-.367-.849z"/><path d="m59 22.8v23.2c-3.375 0-3.375-2.471-6.745-2.471-3.375 0-3.375 2.471-6.75 2.471s-3.375-2.471-6.745-2.471c-3.375 0-3.375 2.471-6.75 2.471s-3.375-2.471-6.745-2.471c-3.375 0-3.375 2.471-6.755 2.471-3.375 0-3.375-2.471-6.755-2.471-3.375 0-3.375 2.471-6.755 2.471v-23.2"/><path d="m53 46v6h-5v-4"/><path d="m11 46v6h5v-4"/><path d="m49.5 44.33v-9.33"/><path d="m42 44.67v-14.67"/><path d="m35.5 44.68v-9.68"/><path d="m28.5 44.67v-14.67"/><path d="m22 44.686v-9.686"/><path d="m15 44.67v-14.67"/></g></svg>