<svg id="Layer_3" height="512" viewBox="0 0 64 64" width="512" xmlns="http://www.w3.org/2000/svg" data-name="Layer 3"><path d="m63 24.154a6.839 6.839 0 0 0 -4.6-6.454l-18.082-6.263a26.21 26.21 0 0 0 -16.218-.282l-18.8 5.783a6.062 6.062 0 0 0 -4.3 5.823 10.534 10.534 0 0 0 .827 4.08 4.381 4.381 0 0 0 -.827 2.573 3.188 3.188 0 0 0 1.975 2.946 6.822 6.822 0 0 0 2.166 11.074l21.9 9.385a14.6 14.6 0 0 0 10.371.431l23.4-7.8a3.2 3.2 0 0 0 2.188-3.036 4.381 4.381 0 0 0 -.827-2.573 10.534 10.534 0 0 0 .827-4.08 6.045 6.045 0 0 0 -3.669-5.572 6.808 6.808 0 0 0 3.669-6.035zm-2 11.607a8.515 8.515 0 0 1 -.737 3.424l-19.944 6.346a9.964 9.964 0 0 1 -3.019.469 1.3 1.3 0 0 1 -.379-2.539l21.372-6.5-.582-1.914-21.374 6.501a3.3 3.3 0 0 0 .963 6.452 11.941 11.941 0 0 0 3.627-.563l19.716-6.273a2.429 2.429 0 0 1 .357 1.25 1.2 1.2 0 0 1 -.821 1.139l-23.4 7.8a12.656 12.656 0 0 1 -8.95-.372l-21.9-9.381a4.824 4.824 0 0 1 -.738-8.478l21.4 7.132a14.6 14.6 0 0 0 10.371-.431l19.664-8.427 1.487.458a4.071 4.071 0 0 1 2.887 3.907zm-2.929-7.161-21.9 9.385a12.645 12.645 0 0 1 -8.95.372l-23.4-7.8a1.2 1.2 0 0 1 -.821-1.143 2.429 2.429 0 0 1 .359-1.25l19.716 6.273a11.941 11.941 0 0 0 3.625.563 3.3 3.3 0 0 0 .961-6.452l-21.372-6.5-.582 1.914 21.372 6.5a1.3 1.3 0 0 1 -.379 2.538 9.964 9.964 0 0 1 -3.021-.469l-19.942-6.346a8.515 8.515 0 0 1 -.737-3.424 4.071 4.071 0 0 1 2.889-3.911l18.8-5.784a24.112 24.112 0 0 1 14.979.261l18.084 6.259a4.834 4.834 0 0 1 .323 9.01z"/></svg>